<svg width="16.000000" height="16.000000" viewBox="0 0 16 16" fill="none" xmlns="http://www.w3.org/2000/svg" xmlns:xlink="http://www.w3.org/1999/xlink">
	<desc>
			Created with Pixso.
	</desc>
	<defs>
		<clipPath id="clip0_294">
			<rect width="16.000000" height="16.000000" fill="white" fill-opacity="0"/>
		</clipPath>
	</defs>
	<g clip-path="url(#clip0_294)">
		<path d="M12.2 10C11.09 9.9 10.49 11.4 9.69 11.79C8.39 12.5 5.99 10 5.99 10C5.99 10 3.49 7.59 4.09 6.29C4.59 5.5 6.09 4.9 5.99 3.79C5.89 2.79 3.69 -0.81 2.59 0.19C0.19 2.4 -0.01 3.29 -0.01 5.09C-0.11 8.19 3.89 12.1 3.89 12.1C4.29 12.5 7.79 16.1 10.89 16C12.7 16 13.59 15.79 15.79 13.4C16.79 12.29 13.29 10.1 12.2 10Z" fill="#607CE6" fill-opacity="1.000000" fill-rule="evenodd"/>
	</g>
</svg>
