<svg width="180.000000" height="38.000000" viewBox="0 0 180 38" fill="none" xmlns="http://www.w3.org/2000/svg" xmlns:xlink="http://www.w3.org/1999/xlink">
	<desc>
			Created with Pixso.
	</desc>
	<defs/>
	<path d="M0 0L39.44 0L39.44 38L0 38L0 0ZM4.93 32.75L4.93 5.24L34.51 5.24L34.51 32.75L22.8 32.75L22.8 26.2L16.64 26.2L16.64 32.75L4.93 32.75ZM107.81 29.1C105.81 29.06 104.2 28.35 102.99 26.99C101.78 25.63 101.1 23.81 100.94 21.53C100.85 20.41 100.94 19.08 101.19 17.56C101.45 16.03 101.9 14.62 102.56 13.34C103.21 12.05 104.03 10.98 105.01 10.13C106.65 8.69 108.54 8 110.67 8.05C111.99 8.07 113.14 8.4 114.12 9.02C115.11 9.63 115.9 10.51 116.49 11.66C117.08 12.82 117.42 14.13 117.52 15.61C117.59 16.65 117.53 17.83 117.33 19.17C117.15 20.49 116.8 21.76 116.29 22.97C115.79 24.17 115.13 25.23 114.33 26.15C113.53 27.07 112.58 27.8 111.48 28.34C110.4 28.88 109.17 29.13 107.81 29.1ZM112.98 15.56C112.89 13.22 112.03 12 110.41 11.9C109.16 11.84 108.12 12.37 107.3 13.49C106.48 14.61 105.93 16.26 105.67 18.45C105.5 19.8 105.44 20.85 105.48 21.59C105.57 23.97 106.44 25.2 108.08 25.26C109.16 25.32 110.08 24.91 110.86 24.04C111.64 23.15 112.2 21.88 112.54 20.21C112.89 18.53 113.03 16.98 112.98 15.56ZM65.46 28.82L69.99 28.82L73.34 8.33L57.57 8.33L54.23 28.82L58.76 28.82L61.49 12.14L68.18 12.14L65.46 28.82ZM96.16 8.33L91.51 8.33L82.87 20.98L84.95 8.33L80.4 8.33L77.05 28.82L81.72 28.82L90.36 16.18L88.28 28.82L92.82 28.82L96.16 8.33ZM133.1 28.82L137.6 28.82L140.95 8.33L136.44 8.33L135.11 16.46L128.49 16.46L129.83 8.33L125.29 8.33L121.95 28.82L126.48 28.82L127.88 20.26L134.49 20.26L133.1 28.82ZM157.41 20.14L150.33 20.14L149.52 25.02L157.9 25.02L157.28 28.82L144.37 28.82L147.7 8.33L160.64 8.33L160.02 12.14L151.62 12.14L150.91 16.46L158.01 16.46L157.41 20.14ZM167.55 28.82L168.69 21.87L171.87 21.88C173.34 21.88 174.67 21.62 175.85 21.08C177.04 20.55 178 19.77 178.73 18.76C179.45 17.74 179.87 16.55 179.97 15.17C180.12 13.15 179.58 11.51 178.34 10.24C177.12 8.98 175.43 8.34 173.28 8.34L166.36 8.33L163.02 28.82L167.55 28.82ZM172.04 18.08L169.31 18.05L170.28 12.14L173.44 12.16C174 12.19 174.44 12.38 174.78 12.72C175.12 13.05 175.33 13.5 175.4 14.07C175.53 15.19 175.28 16.13 174.67 16.9C174.07 17.66 173.19 18.05 172.04 18.08Z" fill="#607CE6" fill-opacity="1.000000" fill-rule="evenodd"/>
</svg>
